<svg xmlns="http://www.w3.org/2000/svg" viewBox="0 0 64 64" role="img" aria-label="Quizzle">
  <defs>
    <linearGradient id="bg" x1="10" y1="8" x2="56" y2="58" gradientUnits="userSpaceOnUse">
      <stop stop-color="#5BB8C8"/>
      <stop offset="1" stop-color="#A8D8E8"/>
    </linearGradient>
    <linearGradient id="shine" x1="19" y1="14" x2="44" y2="51" gradientUnits="userSpaceOnUse">
      <stop stop-color="#FFFFFF" stop-opacity=".7"/>
      <stop offset="1" stop-color="#FFFFFF" stop-opacity="0"/>
    </linearGradient>
  </defs>
  <rect width="64" height="64" rx="16" fill="#1A1080"/>
  <path d="M13 20c0-5 4-9 9-9h20c5 0 9 4 9 9v17c0 5-4 9-9 9h-8.5L24 55v-9h-2c-5 0-9-4-9-9V20Z" fill="url(#bg)"/>
  <path d="M18 21c0-3 2.4-5.5 5.5-5.5H42c3.1 0 5.5 2.5 5.5 5.5v7c-8.4-1.7-18.2 1.5-29.5 9.5V21Z" fill="url(#shine)"/>
  <path d="M33.2 39.4c-6.6 0-11.3-4.7-11.3-11.1s4.7-11.1 11.3-11.1 11.3 4.7 11.3 11.1c0 2.7-.8 5-2.3 6.9l3.1 3.1-4.3 3.7-3.2-3.4c-1.4.5-3 .8-4.6.8Zm0-6.2c2.7 0 4.5-2 4.5-4.9s-1.8-4.9-4.5-4.9-4.5 2-4.5 4.9 1.8 4.9 4.5 4.9Z" fill="#1A1080"/>
  <circle cx="49" cy="17" r="4" fill="#EFE5C8"/>
  <circle cx="17" cy="49" r="2.5" fill="#EFE5C8"/>
</svg>
